<?xml version="1.0" encoding="UTF-8" standalone="no"?>
<!DOCTYPE svg PUBLIC "-//W3C//DTD SVG 1.1//EN" "http://www.w3.org/Graphics/SVG/1.1/DTD/svg11.dtd">
<!-- Generated by graphviz version 5.0.1~dev.20220810.1646 (20220810.1646)
 -->
<!-- Pages: 1 -->
<svg width="450pt" height="520pt" xmlns="http://www.w3.org/2000/svg" xmlns:xlink="http://www.w3.org/1999/xlink">
<g id="graph0" class="graph" transform="scale(1 1) rotate(0) translate(4 686)">
<polygon fill="white" stroke="transparent" points="-4,4 -4,-686 572,-686 572,4 -4,4"/>
<g id="clust1" class="cluster">
<title>cluster_22</title>
<polygon fill="none" stroke="gray" stroke-dasharray="5,2" points="8,-8 8,-674 560,-674 560,-8 8,-8"/>
<text text-anchor="middle" x="486" y="-15" font-family="Times,serif" font-size="10.00">0㎳ ⊕ Δ0.141㎳ ⟹ 0.141㎳</text>
</g>
<!-- 22$\:user/node&#45;a -->
<g id="node1" class="node">
<title>22$\:user/node-a</title>
<polygon fill="skyblue" stroke="silver" stroke-dasharray="1,5" points="319.5,-666 220.5,-666 220.5,-615 319.5,-615 319.5,-666"/>
<text text-anchor="start" x="234" y="-649.5" font-family="monospace bold" font-size="10.00">:user/node-a</text>
<text text-anchor="start" x="233" y="-625.1" font-family="monospace" font-size="8.00" fill="blue">1</text>
</g>
<!-- 22$\:user/node&#45;c -->
<g id="node5" class="node">
<title>22$\:user/node-c</title>
<polygon fill="lemonchiffon" stroke="silver" points="331,-506 75,-506 75,-427 331,-427 331,-506"/>
<text text-anchor="start" x="166.5" y="-489.5" font-family="monospace bold" font-size="10.00">:user/node-c</text>
<text text-anchor="start" x="87" y="-465.1" font-family="monospace" font-size="8.00" fill="blue">11</text>
<text text-anchor="start" x="87" y="-450.9" font-family="monospace" font-size="7.00" fill="darkslategray">thread</text>
<text text-anchor="start" x="138" y="-450.9" font-family="monospace" font-size="7.00" fill="darkslategray">nREPL-session-792f2e26-7bea-42d7-8828-d…</text>
<text text-anchor="start" x="87" y="-436.9" font-family="monospace" font-size="7.00" fill="darkslategray">time</text>
<text text-anchor="start" x="121" y="-437.9" font-family="monospace" font-size="7.00" fill="darkslategray">0.0487㎳ ⊕ Δ0.00504㎳ ⊎ Δ0.00438㎳ ⟹ </text>
<text text-anchor="start" x="285" y="-437.9" font-family="monospace" font-size="7.00">0.0581㎳</text>
</g>
<!-- 22$\:user/node&#45;a&#45;&gt;22$\:user/node&#45;c -->
<g id="edge6" class="edge">
<title>22$\:user/node-a-&gt;22$\:user/node-c</title>
<path fill="none" stroke="dimgrey" d="M257.82,-608.23C246.64,-579.52 230.03,-536.88 218.02,-506.06"/>
<polygon fill="dimgrey" stroke="dimgrey" points="260.4,-614.86 254.92,-609.48 259.13,-611.6 257.86,-608.33 257.86,-608.33 257.86,-608.33 259.13,-611.6 260.79,-607.19 260.4,-614.86 260.4,-614.86"/>
</g>
<!-- 22$\:user/node&#45;b -->
<g id="node2" class="node">
<title>22$\:user/node-b</title>
<polygon fill="skyblue" stroke="silver" stroke-dasharray="1,5" points="184.5,-666 85.5,-666 85.5,-615 184.5,-615 184.5,-666"/>
<text text-anchor="start" x="99" y="-649.5" font-family="monospace bold" font-size="10.00">:user/node-b</text>
<text text-anchor="start" x="98" y="-625.1" font-family="monospace" font-size="8.00" fill="blue">10</text>
</g>
<!-- 22$\:user/node&#45;b&#45;&gt;22$\:user/node&#45;c -->
<g id="edge5" class="edge">
<title>22$\:user/node-b-&gt;22$\:user/node-c</title>
<path fill="none" stroke="dimgrey" d="M147.36,-608.23C158.71,-579.52 175.57,-536.88 187.75,-506.06"/>
<polygon fill="dimgrey" stroke="dimgrey" points="144.74,-614.86 144.39,-607.19 146.03,-611.6 147.32,-608.35 147.32,-608.35 147.32,-608.35 146.03,-611.6 150.25,-609.51 144.74,-614.86 144.74,-614.86"/>
</g>
<!-- 22$\:user/anode&#45;z -->
<g id="node3" class="node">
<title>22$\:user/anode-z</title>
<polygon fill="lightgreen" stroke="silver" stroke-width="2" points="552,-114 300,-114 300,-35 552,-35 552,-114"/>
<text text-anchor="start" x="386.5" y="-97.5" font-family="monospace bold" font-size="10.00">:user/anode-z</text>
<text text-anchor="start" x="312" y="-73.1" font-family="monospace" font-size="8.00" fill="blue">109</text>
<text text-anchor="start" x="312" y="-58.9" font-family="monospace" font-size="7.00" fill="darkslategray">thread*</text>
<text text-anchor="start" x="359" y="-58.9" font-family="monospace" font-size="7.00" fill="darkslategray">nREPL-session-792f2e26-7bea-42d7-8828-d…</text>
<text text-anchor="start" x="312" y="-44.9" font-family="monospace" font-size="7.00" fill="darkslategray">time</text>
<text text-anchor="start" x="350" y="-45.9" font-family="monospace" font-size="7.00" fill="darkslategray">0.113㎳ ⊕ Δ0.00522㎳ ⊎ Δ0.00798㎳ ⟹ </text>
<text text-anchor="start" x="510" y="-45.9" font-family="monospace" font-size="7.00">0.126㎳</text>
</g>
<!-- 22$\:user/anode&#45;y -->
<g id="node4" class="node">
<title>22$\:user/anode-y</title>
<polygon fill="lightgreen" stroke="silver" stroke-width="2" points="264,-114 16,-114 16,-35 264,-35 264,-114"/>
<text text-anchor="start" x="100.5" y="-97.5" font-family="monospace bold" font-size="10.00">:user/anode-y</text>
<text text-anchor="start" x="28" y="-73.1" font-family="monospace" font-size="8.00" fill="blue">121</text>
<text text-anchor="start" x="28" y="-58.9" font-family="monospace" font-size="7.00" fill="darkslategray">thread</text>
<text text-anchor="start" x="71" y="-58.9" font-family="monospace" font-size="7.00" fill="darkslategray">nREPL-session-792f2e26-7bea-42d7-8828-d…</text>
<text text-anchor="start" x="28" y="-44.9" font-family="monospace" font-size="7.00" fill="darkslategray">time</text>
<text text-anchor="start" x="62" y="-45.9" font-family="monospace" font-size="7.00" fill="darkslategray">0.0902㎳ ⊕ Δ0.0131㎳ ⊎ Δ0.00332㎳ ⟹ </text>
<text text-anchor="start" x="222" y="-45.9" font-family="monospace" font-size="7.00">0.107㎳</text>
</g>
<!-- 22$\:user/node&#45;c&#45;&gt;22$\:user/anode&#45;y -->
<g id="edge2" class="edge">
<title>22$\:user/node-c-&gt;22$\:user/anode-y</title>
<path fill="none" stroke="dimgrey" d="M187.56,-419.92C177.8,-389.21 165.78,-347.61 159,-310 146.72,-241.86 142.37,-161.15 140.84,-114.39"/>
<polygon fill="dimgrey" stroke="dimgrey" points="185.27,-420.77 189.74,-426.69 189.93,-419.28 185.27,-420.77"/>
<text text-anchor="middle" x="181" y="-268.6" font-family="Times,serif" font-size="8.00">+0.0486㎳</text>
</g>
<!-- 22$\:user/anode&#45;x -->
<g id="node6" class="node">
<title>22$\:user/anode-x</title>
<polygon fill="lightgreen" stroke="silver" stroke-width="2" points="463.5,-310 220.5,-310 220.5,-231 463.5,-231 463.5,-310"/>
<text text-anchor="start" x="303" y="-293.5" font-family="monospace bold" font-size="10.00">:user/anode-x</text>
<text text-anchor="start" x="233" y="-269.1" font-family="monospace" font-size="8.00" fill="blue">110</text>
<text text-anchor="start" x="233" y="-254.9" font-family="monospace" font-size="7.00" fill="darkslategray">thread*</text>
<text text-anchor="start" x="271" y="-254.9" font-family="monospace" font-size="7.00" fill="darkslategray">nREPL-session-792f2e26-7bea-42d7-8828-d…</text>
<text text-anchor="start" x="233" y="-240.9" font-family="monospace" font-size="7.00" fill="darkslategray">time</text>
<text text-anchor="start" x="280" y="-241.9" font-family="monospace" font-size="7.00" fill="darkslategray">0.0387㎳ ⊕ Δ0.021㎳ ⊎ Δ0.0404㎳ ⟹ </text>
<text text-anchor="start" x="431" y="-241.9" font-family="monospace" font-size="7.00">0.1㎳</text>
</g>
<!-- 22$\:user/node&#45;c&#45;&gt;22$\:user/anode&#45;x -->
<g id="edge4" class="edge">
<title>22$\:user/node-c-&gt;22$\:user/anode-x</title>
<path fill="none" stroke="black" stroke-width="2" d="M235.16,-420.61C259.1,-387.2 291.44,-342.06 314.25,-310.23"/>
<polygon fill="black" stroke="black" stroke-width="2" points="232.88,-419.59 230.79,-426.71 236.86,-422.44 232.88,-419.59"/>
<text text-anchor="middle" x="291.5" y="-366.6" font-family="Times,serif" font-size="8.00">+0.042㎳</text>
</g>
<!-- 22$\:user/anode&#45;x&#45;&gt;22$\:user/anode&#45;z -->
<g id="edge1" class="edge">
<title>22$\:user/anode-x-&gt;22$\:user/anode-z</title>
<path fill="none" stroke="dimgrey" d="M361.62,-224.19C375.27,-192.65 393.39,-150.8 406.93,-119.54"/>
<polygon fill="none" stroke="dimgrey" points="359.33,-223.31 358.8,-230.71 363.83,-225.26 359.33,-223.31"/>
<ellipse fill="none" stroke="dimgrey" cx="408.12" cy="-116.79" rx="2.8" ry="2.8"/>
<text text-anchor="middle" x="406" y="-170.6" font-family="Times,serif" font-size="8.00">+0.0263㎳</text>
</g>
<!-- 22$\:user/anode&#45;x&#45;&gt;22$\:user/anode&#45;y -->
<g id="edge3" class="edge">
<title>22$\:user/anode-x-&gt;22$\:user/anode-y</title>
<path fill="none" stroke="black" stroke-width="2" d="M296.55,-225.85C261.64,-192.33 213.88,-146.46 180.32,-114.23"/>
<polygon fill="none" stroke="black" stroke-width="2" points="294.86,-227.63 301.61,-230.71 298.26,-224.09 294.86,-227.63"/>
<text text-anchor="middle" x="265.5" y="-170.6" font-family="Times,serif" font-size="8.00">+0.00659㎳</text>
</g>
</g>
</svg>